<?xml version="1.0" encoding="utf-8"?>
<!-- Generator: Adobe Illustrator 21.1.0, SVG Export Plug-In . SVG Version: 6.00 Build 0)  -->
<svg version="1.1" id="Layer_1" xmlns="http://www.w3.org/2000/svg" xmlns:xlink="http://www.w3.org/1999/xlink" x="0px" y="0px"
	 viewBox="0 0 200 200" style="enable-background:new 0 0 200 200;" xml:space="preserve">
<style type="text/css">
	.st0{fill:#FFFFFF;}
	.st1{fill:#FF9900;}
</style>
<g>
	<polygon class="st0" points="148.7,93.8 150,87 150.2,85.6 148.8,85.6 140,85.6 139,85.6 138.8,86.6 137.5,93.8 	"/>
	<polygon class="st0" points="198.5,85.6 189.8,85.6 188.8,85.6 188.6,86.6 184,110.9 166.9,86.1 166.5,85.6 165.9,85.6 154.3,85.6 
		153.3,85.6 153.1,86.6 146.3,123 146,124.5 147.5,124.5 156.2,124.5 157.2,124.5 157.4,123.5 162.1,98.3 179.6,124 179.9,124.5 
		180.6,124.5 191.7,124.5 192.7,124.5 192.9,123.5 199.7,87 200,85.6 	"/>
	<polygon class="st0" points="136.9,96.9 132,123.1 131.7,124.5 133.2,124.5 141.9,124.5 142.9,124.5 143.1,123.5 148.1,96.9 	"/>
	<path class="st0" d="M134.5,85.6h-13.2h-0.6l-0.4,0.5l-16.7,23.6l-7.5-23.2l-0.3-0.8H95H79.1c1.1,1.7,2,3.6,2.7,5.5
		c1,3,1.5,6.1,1.5,9.2c0,3.2-0.6,6.2-1.7,9.2c-1,2.8-2.5,5.5-4.4,7.8c-1.9,2.3-4.1,4.3-6.7,6c-0.7,0.4-1.3,0.8-2,1.2h14.6h1l0.2-1
		l4.8-25.7l7.9,25.8l0.3,0.9h0.9h6.1h0.6l0.4-0.5l17.5-25.7l-4.7,24.8l-0.3,1.4h1.5h8.3h1l0.2-1l6.9-36.5l0.3-1.4H134.5z"/>
	<g>
		<path class="st1" d="M78.9,92.1c-0.9-2.5-2.2-4.9-3.8-7.1c-1.6-2.1-3.6-3.9-5.9-5.4c-2.3-1.5-4.8-2.6-7.4-3.3c-2-0.5-4-0.8-6-0.8
			c-7.6,0-14.3,3.5-18.8,8.9c1.7,3.2,2.4,6.8,2.1,10.4c-0.1,1.8-0.6,3.6-1.2,5.3c-0.3,0.8-0.7,1.7-1.1,2.5c-0.3,0.5-0.5,1-0.8,1.4
			c-0.9,1.8-1.9,3.5-2.8,5.3c0,0,0,0.1-0.1,0.1c1.1,2.6,2.7,5.1,4.6,7.2c1.9,2.1,4.2,3.9,6.8,5.2c2.6,1.3,5.4,2.2,8.3,2.6
			c2.9,0.3,5.8,0.2,8.6-0.5c2.6-0.6,5.2-1.7,7.5-3.1c2.3-1.4,4.3-3.2,6-5.3c1.7-2.1,3-4.5,4-7c1-2.6,1.5-5.4,1.5-8.2
			C80.3,97.5,79.8,94.7,78.9,92.1z M69.1,105.7c-1,2.5-2.8,4.6-5,6.2c-2.2,1.6-4.9,2.5-7.6,2.6c-0.2,0-0.5,0-0.7,0
			c-2.8,0-5.5-0.8-7.8-2.3c-2.2-1.5-4.1-3.5-5.2-5.9c-1.2-2.5-1.6-5.4-1.3-8.1c0.4-2.7,1.5-5.3,3.3-7.3c1.7-2.1,4-3.6,6.6-4.4
			c2.7-0.9,5.6-0.9,8.3-0.2c2.6,0.7,5,2.2,6.8,4.1c1.8,2,3.1,4.5,3.6,7.2C70.5,100.3,70.2,103.1,69.1,105.7z M35.1,87.9
			c-0.8-2.6-2.2-4.9-4.1-6.9c-1.8-1.9-4.1-3.5-6.6-4.4c-2.1-0.8-4.2-1.2-6.4-1.2c-2.8,0-5.5,0.6-8,1.9c-2.4,1.2-4.5,2.9-6.2,5
			c-1.7,2.1-2.9,4.6-3.4,7.3c-0.6,2.7-0.5,5.6,0.2,8.4c0.7,2.6,2,5.1,3.7,7.1c1.7,2,3.9,3.7,6.4,4.8c2.1,0.9,4.4,1.5,6.8,1.5
			l-6,11.4l-0.9,1.8h2h8.6h0.7l0.3-0.7c0.4-0.7,0.7-1.4,1.1-2.1c0.9-1.7,1.8-3.5,2.7-5.2c1.1-2.1,2.2-4.3,3.3-6.4
			c1-1.9,2-3.8,3.1-5.8c0.4-0.8,0.9-1.6,1.3-2.4c0.8-1.6,1.5-3.3,1.9-5.1C36.3,94,36.1,90.9,35.1,87.9z M25.3,96.5l-0.4,0.7
			l-0.2,0.4c-1.6,2.6-4.7,4-7.7,3.6c-2.7-0.3-5.1-2.1-6.2-4.6c-1.1-2.5-0.9-5.6,0.8-7.8c1.5-2.1,3.9-3.3,6.5-3.3
			c2.7,0,5.4,1.5,6.8,3.8C26.1,91.4,26.3,94.1,25.3,96.5z"/>
	</g>
</g>
</svg>
